<?xml version="1.0" encoding="UTF-8" standalone="no"?><!DOCTYPE svg PUBLIC "-//W3C//DTD SVG 1.1//EN" "http://www.w3.org/Graphics/SVG/1.1/DTD/svg11.dtd"><!-- Generated by graphviz version 2.40.1 (20161225.0304)
 --><!-- Title: %0 Pages: 1 --><svg xmlns="http://www.w3.org/2000/svg" xmlns:xlink="http://www.w3.org/1999/xlink" width="973pt" height="942pt" viewBox="0.00 0.00 972.70 942.20">
<g id="graph0" class="graph" transform="scale(1 1) rotate(0) translate(4 938.2)">
<title>%0</title>
<polygon fill="#ffffff" stroke="transparent" points="-4,4 -4,-938.2 968.7045,-938.2 968.7045,4 -4,4"/>
<!-- Halted -->
<g id="node1" class="node">
<title>Halted</title>
<ellipse fill="none" stroke="#000000" cx="42.7797" cy="-503.4" rx="36.5555" ry="18"/>
<text text-anchor="middle" x="42.7797" y="-499.2" font-family="Times,serif" font-size="14.00" fill="#000000">Halted</text>
</g>
<!-- S_18 -->
<g id="node4" class="node">
<title>S_18</title>
<ellipse fill="none" stroke="#000000" cx="417.7797" cy="-414.6" rx="30.7808" ry="18"/>
<text text-anchor="middle" x="417.7797" y="-410.4" font-family="Times,serif" font-size="14.00" fill="#000000">S_18</text>
</g>
<!-- Halted&#45;&gt;S_18 -->
<g id="edge1" class="edge">
<title>Halted-&gt;S_18</title>
<path fill="none" stroke="#000000" d="M47.3717,-485.4526C51.4041,-473.544 58.5364,-458.6714 70.4431,-450.6 95.3118,-433.7417 289.9324,-421.4057 376.5009,-416.6968"/>
<polygon fill="#000000" stroke="#000000" points="376.9505,-420.1778 386.7489,-416.1476 376.5759,-413.1879 376.9505,-420.1778"/>
<text text-anchor="middle" x="82.448" y="-454.8" font-family="Times,serif" font-size="14.00" fill="#000000">Run</text>
</g>
<!-- PauseIR1 -->
<g id="node2" class="node">
<title>PauseIR1</title>
<ellipse fill="none" stroke="#000000" cx="492.7797" cy="-106.8" rx="48.0916" ry="18"/>
<text text-anchor="middle" x="492.7797" y="-102.6" font-family="Times,serif" font-size="14.00" fill="#000000">PauseIR1</text>
</g>
<!-- PauseIR1&#45;&gt;PauseIR1 -->
<g id="edge6" class="edge">
<title>PauseIR1-&gt;PauseIR1</title>
<path fill="none" stroke="#000000" d="M537.5394,-113.5001C549.6285,-113.1467 558.8254,-110.9133 558.8254,-106.8 558.8254,-103.9721 554.4784,-102.0328 547.8332,-100.982"/>
<polygon fill="#000000" stroke="#000000" points="547.8018,-97.4666 537.5394,-100.0999 547.2041,-104.441 547.8018,-97.4666"/>
<text text-anchor="middle" x="600.6245" y="-102.6" font-family="Times,serif" font-size="14.00" fill="#000000">NOT Continue</text>
</g>
<!-- PauseIR2 -->
<g id="node3" class="node">
<title>PauseIR2</title>
<ellipse fill="none" stroke="#000000" cx="421.7797" cy="-18" rx="48.0916" ry="18"/>
<text text-anchor="middle" x="421.7797" y="-13.8" font-family="Times,serif" font-size="14.00" fill="#000000">PauseIR2</text>
</g>
<!-- PauseIR1&#45;&gt;PauseIR2 -->
<g id="edge7" class="edge">
<title>PauseIR1-&gt;PauseIR2</title>
<path fill="none" stroke="#000000" d="M478.7523,-89.256C468.3472,-76.2422 453.9998,-58.2979 442.3063,-43.6727"/>
<polygon fill="#000000" stroke="#000000" points="444.7563,-41.1323 435.7778,-35.5076 439.289,-45.5037 444.7563,-41.1323"/>
<text text-anchor="middle" x="489.4459" y="-58.2" font-family="Times,serif" font-size="14.00" fill="#000000">Continue</text>
</g>
<!-- PauseIR2&#45;&gt;PauseIR2 -->
<g id="edge8" class="edge">
<title>PauseIR2-&gt;PauseIR2</title>
<path fill="none" stroke="#000000" d="M464.6576,-26.2374C477.661,-26.031 487.8254,-23.2852 487.8254,-18 487.8254,-14.2013 482.5745,-11.7144 474.7926,-10.5394"/>
<polygon fill="#000000" stroke="#000000" points="474.8959,-7.0371 464.6576,-9.7626 474.3609,-14.0167 474.8959,-7.0371"/>
<text text-anchor="middle" x="513.4916" y="-13.8" font-family="Times,serif" font-size="14.00" fill="#000000">Continue</text>
</g>
<!-- PauseIR2&#45;&gt;S_18 -->
<g id="edge9" class="edge">
<title>PauseIR2-&gt;S_18</title>
<path fill="none" stroke="#000000" d="M416.5407,-36.1952C411.8744,-54.0246 405.7797,-82.0494 405.7797,-106.8 405.7797,-341.6 405.7797,-341.6 405.7797,-341.6 405.7797,-356.599 408.2768,-373.1047 410.9929,-386.6213"/>
<polygon fill="#000000" stroke="#000000" points="407.6444,-387.6974 413.1745,-396.7345 414.487,-386.2213 407.6444,-387.6974"/>
<text text-anchor="middle" x="447.5788" y="-220" font-family="Times,serif" font-size="14.00" fill="#000000">NOT Continue</text>
</g>
<!-- S_33_1 -->
<g id="node5" class="node">
<title>S_33_1</title>
<ellipse fill="none" stroke="#000000" cx="481.7797" cy="-341.6" rx="40.5944" ry="18"/>
<text text-anchor="middle" x="481.7797" y="-337.4" font-family="Times,serif" font-size="14.00" fill="#000000">S_33_1</text>
</g>
<!-- S_18&#45;&gt;S_33_1 -->
<g id="edge2" class="edge">
<title>S_18-&gt;S_33_1</title>
<path fill="none" stroke="#000000" d="M431.9833,-398.3989C440.2588,-388.9597 450.8626,-376.8647 460.1568,-366.2636"/>
<polygon fill="#000000" stroke="#000000" points="462.9879,-368.3435 466.9485,-358.5168 457.7243,-363.7289 462.9879,-368.3435"/>
</g>
<!-- S_33_2 -->
<g id="node6" class="node">
<title>S_33_2</title>
<ellipse fill="none" stroke="#000000" cx="500.7797" cy="-268.6" rx="40.5944" ry="18"/>
<text text-anchor="middle" x="500.7797" y="-264.4" font-family="Times,serif" font-size="14.00" fill="#000000">S_33_2</text>
</g>
<!-- S_33_1&#45;&gt;S_33_2 -->
<g id="edge3" class="edge">
<title>S_33_1-&gt;S_33_2</title>
<path fill="none" stroke="#000000" d="M486.4763,-323.5551C488.6001,-315.3951 491.1586,-305.5652 493.521,-296.4887"/>
<polygon fill="#000000" stroke="#000000" points="496.9395,-297.2496 496.0712,-286.6904 490.1652,-295.4863 496.9395,-297.2496"/>
</g>
<!-- S_35 -->
<g id="node7" class="node">
<title>S_35</title>
<ellipse fill="none" stroke="#000000" cx="501.7797" cy="-179.8" rx="30.7808" ry="18"/>
<text text-anchor="middle" x="501.7797" y="-175.6" font-family="Times,serif" font-size="14.00" fill="#000000">S_35</text>
</g>
<!-- S_33_2&#45;&gt;S_35 -->
<g id="edge4" class="edge">
<title>S_33_2-&gt;S_35</title>
<path fill="none" stroke="#000000" d="M500.9869,-250.2006C501.1232,-238.0949 501.3043,-222.0076 501.4591,-208.2674"/>
<polygon fill="#000000" stroke="#000000" points="504.9632,-207.9108 501.5761,-197.872 497.9637,-207.8319 504.9632,-207.9108"/>
</g>
<!-- S_35&#45;&gt;PauseIR1 -->
<g id="edge5" class="edge">
<title>S_35-&gt;PauseIR1</title>
<path fill="none" stroke="#000000" d="M499.5549,-161.7551C498.5597,-153.6828 497.363,-143.9764 496.2541,-134.9817"/>
<polygon fill="#000000" stroke="#000000" points="499.7074,-134.3869 495.01,-124.8904 492.76,-135.2435 499.7074,-134.3869"/>
</g>
<!-- S_32 -->
<g id="node8" class="node">
<title>S_32</title>
<ellipse fill="none" stroke="#000000" cx="396.7797" cy="-916.2" rx="30.7808" ry="18"/>
<text text-anchor="middle" x="396.7797" y="-912" font-family="Times,serif" font-size="14.00" fill="#000000">S_32</text>
</g>
<!-- S_01 -->
<g id="node9" class="node">
<title>S_01</title>
<ellipse fill="none" stroke="#000000" cx="53.7797" cy="-773.4" rx="30.7808" ry="18"/>
<text text-anchor="middle" x="53.7797" y="-769.2" font-family="Times,serif" font-size="14.00" fill="#000000">S_01</text>
</g>
<!-- S_32&#45;&gt;S_01 -->
<g id="edge10" class="edge">
<title>S_32-&gt;S_01</title>
<path fill="none" stroke="#000000" d="M365.7374,-915.664C278.0142,-913.8303 33.078,-906.3897 9.2083,-880.2 -12.6787,-856.1858 10.8737,-819.892 31.1904,-796.4161"/>
<polygon fill="#000000" stroke="#000000" points="33.794,-798.7551 37.886,-788.9823 28.5928,-794.0703 33.794,-798.7551"/>
<text text-anchor="middle" x="71.0654" y="-867.6" font-family="Times,serif" font-size="14.00" fill="#000000">Opcode=0001 (ADD)</text>
</g>
<!-- S_05 -->
<g id="node10" class="node">
<title>S_05</title>
<ellipse fill="none" stroke="#000000" cx="202.7797" cy="-665.4" rx="30.7808" ry="18"/>
<text text-anchor="middle" x="202.7797" y="-661.2" font-family="Times,serif" font-size="14.00" fill="#000000">S_05</text>
</g>
<!-- S_32&#45;&gt;S_05 -->
<g id="edge11" class="edge">
<title>S_32-&gt;S_05</title>
<path fill="none" stroke="#000000" d="M366.691,-911.695C308.7306,-902.3363 185.1068,-878.8412 160.2083,-845.4 125.5573,-798.8604 161.0281,-728.3468 184.8973,-690.8859"/>
<polygon fill="#000000" stroke="#000000" points="188.0985,-692.3878 190.6661,-682.1088 182.2488,-688.5431 188.0985,-692.3878"/>
<text text-anchor="middle" x="222.0654" y="-823.2" font-family="Times,serif" font-size="14.00" fill="#000000">Opcode=0101 (AND)</text>
</g>
<!-- S_09 -->
<g id="node11" class="node">
<title>S_09</title>
<ellipse fill="none" stroke="#000000" cx="301.7797" cy="-557.4" rx="30.7808" ry="18"/>
<text text-anchor="middle" x="301.7797" y="-553.2" font-family="Times,serif" font-size="14.00" fill="#000000">S_09</text>
</g>
<!-- S_32&#45;&gt;S_09 -->
<g id="edge12" class="edge">
<title>S_32-&gt;S_09</title>
<path fill="none" stroke="#000000" d="M368.3089,-908.9392C352.285,-903.4894 333.0831,-894.4597 320.7797,-880.2 293.8306,-848.9661 299.8322,-832.2039 293.7623,-791.4 282.7942,-717.6695 291.6535,-629.4981 297.5624,-585.4076"/>
<polygon fill="#000000" stroke="#000000" points="301.0386,-585.8204 298.9511,-575.4333 294.1055,-584.8551 301.0386,-585.8204"/>
<text text-anchor="middle" x="354.2884" y="-769.2" font-family="Times,serif" font-size="14.00" fill="#000000">Opcode=1001 (NOT)</text>
</g>
<!-- S_06 -->
<g id="node12" class="node">
<title>S_06</title>
<ellipse fill="none" stroke="#000000" cx="372.7797" cy="-827.4" rx="30.7808" ry="18"/>
<text text-anchor="middle" x="372.7797" y="-823.2" font-family="Times,serif" font-size="14.00" fill="#000000">S_06</text>
</g>
<!-- S_32&#45;&gt;S_06 -->
<g id="edge13" class="edge">
<title>S_32-&gt;S_06</title>
<path fill="none" stroke="#000000" d="M368.1583,-909.3013C352.9679,-904.0259 335.6085,-895.05 326.5323,-880.2 318.8691,-867.662 328.6865,-855.2207 341.2167,-845.5668"/>
<polygon fill="#000000" stroke="#000000" points="343.4913,-848.2474 349.6861,-839.6523 339.4834,-842.5083 343.4913,-848.2474"/>
<text text-anchor="middle" x="386.9034" y="-867.6" font-family="Times,serif" font-size="14.00" fill="#000000">Opcode=0110 (LDR)</text>
</g>
<!-- S_07 -->
<g id="node16" class="node">
<title>S_07</title>
<ellipse fill="none" stroke="#000000" cx="468.7797" cy="-827.4" rx="30.7808" ry="18"/>
<text text-anchor="middle" x="468.7797" y="-823.2" font-family="Times,serif" font-size="14.00" fill="#000000">S_07</text>
</g>
<!-- S_32&#45;&gt;S_07 -->
<g id="edge14" class="edge">
<title>S_32-&gt;S_07</title>
<path fill="none" stroke="#000000" d="M419.3741,-903.7504C428.8317,-897.6481 439.3329,-889.5844 446.7797,-880.2 452.6998,-872.7395 457.2719,-863.4584 460.675,-854.7679"/>
<polygon fill="#000000" stroke="#000000" points="463.9764,-855.9302 464.0302,-845.3355 457.3812,-853.5842 463.9764,-855.9302"/>
<text text-anchor="middle" x="515.7414" y="-867.6" font-family="Times,serif" font-size="14.00" fill="#000000">Opcode=0111 (STR)</text>
</g>
<!-- S_04 -->
<g id="node20" class="node">
<title>S_04</title>
<ellipse fill="none" stroke="#000000" cx="579.7797" cy="-827.4" rx="30.7808" ry="18"/>
<text text-anchor="middle" x="579.7797" y="-823.2" font-family="Times,serif" font-size="14.00" fill="#000000">S_04</text>
</g>
<!-- S_32&#45;&gt;S_04 -->
<g id="edge15" class="edge">
<title>S_32-&gt;S_04</title>
<path fill="none" stroke="#000000" d="M427.7375,-914.6246C474.5208,-911.5289 559.8044,-902.8555 578.7797,-880.2 584.4918,-873.38 586.0175,-864.1446 585.7097,-855.3045"/>
<polygon fill="#000000" stroke="#000000" points="589.1814,-854.8525 584.647,-845.2771 582.2204,-855.5903 589.1814,-854.8525"/>
<text text-anchor="middle" x="643.1874" y="-867.6" font-family="Times,serif" font-size="14.00" fill="#000000">Opcode=0100 (JSR)</text>
</g>
<!-- S_12 -->
<g id="node22" class="node">
<title>S_12</title>
<ellipse fill="none" stroke="#000000" cx="669.7797" cy="-773.4" rx="30.7808" ry="18"/>
<text text-anchor="middle" x="669.7797" y="-769.2" font-family="Times,serif" font-size="14.00" fill="#000000">S_12</text>
</g>
<!-- S_32&#45;&gt;S_12 -->
<g id="edge16" class="edge">
<title>S_32-&gt;S_12</title>
<path fill="none" stroke="#000000" d="M427.7554,-914.8733C502.2339,-911.3666 686.5491,-900.6855 704.7797,-880.2 725.459,-856.9628 706.8093,-821.2493 689.7947,-797.6101"/>
<polygon fill="#000000" stroke="#000000" points="692.4902,-795.3715 683.6759,-789.4927 686.9003,-799.585 692.4902,-795.3715"/>
<text text-anchor="middle" x="771.7414" y="-867.6" font-family="Times,serif" font-size="14.00" fill="#000000">Opcode=1100 (JMP)</text>
</g>
<!-- S_00 -->
<g id="node23" class="node">
<title>S_00</title>
<ellipse fill="none" stroke="#000000" cx="738.7797" cy="-611.4" rx="30.7808" ry="18"/>
<text text-anchor="middle" x="738.7797" y="-607.2" font-family="Times,serif" font-size="14.00" fill="#000000">S_00</text>
</g>
<!-- S_32&#45;&gt;S_00 -->
<g id="edge17" class="edge">
<title>S_32-&gt;S_00</title>
<path fill="none" stroke="#000000" d="M427.706,-916.0204C522.9839,-915.1486 807.2849,-910.0473 834.7797,-880.2 901.5451,-807.7219 806.655,-685.6464 760.9704,-634.763"/>
<polygon fill="#000000" stroke="#000000" points="763.419,-632.254 754.0931,-627.2263 758.2483,-636.9724 763.419,-632.254"/>
<text text-anchor="middle" x="909.2421" y="-769.2" font-family="Times,serif" font-size="14.00" fill="#000000">Opcode=0000 (BR)</text>
</g>
<!-- S_01&#45;&gt;S_18 -->
<g id="edge18" class="edge">
<title>S_01-&gt;S_18</title>
<path fill="none" stroke="#000000" d="M67.9675,-757.0897C83.9668,-736.9696 107.7797,-701.0373 107.7797,-665.4 107.7797,-665.4 107.7797,-665.4 107.7797,-503.4 107.7797,-448.0453 292.759,-425.2225 376.9363,-417.7024"/>
<polygon fill="#000000" stroke="#000000" points="377.2606,-421.1875 386.9223,-416.8401 376.6583,-414.2135 377.2606,-421.1875"/>
</g>
<!-- S_05&#45;&gt;S_18 -->
<g id="edge19" class="edge">
<title>S_05-&gt;S_18</title>
<path fill="none" stroke="#000000" d="M209.4377,-647.7823C225.9581,-606.5335 272.9086,-503.2099 346.7797,-450.6 357.9718,-442.6291 371.1795,-435.4196 383.1491,-429.5824"/>
<polygon fill="#000000" stroke="#000000" points="384.871,-432.64 392.4208,-425.2069 381.8835,-426.3095 384.871,-432.64"/>
</g>
<!-- S_09&#45;&gt;S_18 -->
<g id="edge20" class="edge">
<title>S_09-&gt;S_18</title>
<path fill="none" stroke="#000000" d="M306.8431,-539.6128C311.7943,-524.2498 320.4022,-501.9747 332.7797,-485.4 347.9879,-465.0346 370.1885,-446.804 388.0874,-433.9437"/>
<polygon fill="#000000" stroke="#000000" points="390.2893,-436.6748 396.479,-428.0761 386.2781,-430.9381 390.2893,-436.6748"/>
</g>
<!-- S_25_1 -->
<g id="node13" class="node">
<title>S_25_1</title>
<ellipse fill="none" stroke="#000000" cx="376.7797" cy="-719.4" rx="40.5944" ry="18"/>
<text text-anchor="middle" x="376.7797" y="-715.2" font-family="Times,serif" font-size="14.00" fill="#000000">S_25_1</text>
</g>
<!-- S_06&#45;&gt;S_25_1 -->
<g id="edge21" class="edge">
<title>S_06-&gt;S_25_1</title>
<path fill="none" stroke="#000000" d="M395.8317,-815.4133C404.7136,-809.4851 413.8937,-801.4282 418.7797,-791.4 425.7877,-777.0164 425.4654,-769.9362 418.7797,-755.4 416.3719,-750.165 412.7856,-745.4063 408.7055,-741.1883"/>
<polygon fill="#000000" stroke="#000000" points="410.7392,-738.3083 400.976,-734.1937 406.0424,-743.4987 410.7392,-738.3083"/>
</g>
<!-- S_25_2 -->
<g id="node14" class="node">
<title>S_25_2</title>
<ellipse fill="none" stroke="#000000" cx="369.7797" cy="-611.4" rx="40.5944" ry="18"/>
<text text-anchor="middle" x="369.7797" y="-607.2" font-family="Times,serif" font-size="14.00" fill="#000000">S_25_2</text>
</g>
<!-- S_25_1&#45;&gt;S_25_2 -->
<g id="edge22" class="edge">
<title>S_25_1-&gt;S_25_2</title>
<path fill="none" stroke="#000000" d="M375.5922,-701.0793C374.4995,-684.221 372.8626,-658.9651 371.604,-639.547"/>
<polygon fill="#000000" stroke="#000000" points="375.0891,-639.2028 370.9496,-629.4502 368.1038,-639.6556 375.0891,-639.2028"/>
</g>
<!-- S_27 -->
<g id="node15" class="node">
<title>S_27</title>
<ellipse fill="none" stroke="#000000" cx="372.7797" cy="-503.4" rx="30.7808" ry="18"/>
<text text-anchor="middle" x="372.7797" y="-499.2" font-family="Times,serif" font-size="14.00" fill="#000000">S_27</text>
</g>
<!-- S_25_2&#45;&gt;S_27 -->
<g id="edge23" class="edge">
<title>S_25_2-&gt;S_27</title>
<path fill="none" stroke="#000000" d="M370.2886,-593.0793C370.7569,-576.221 371.4584,-550.9651 371.9978,-531.547"/>
<polygon fill="#000000" stroke="#000000" points="375.4992,-531.5435 372.2783,-521.4502 368.5018,-531.3491 375.4992,-531.5435"/>
</g>
<!-- S_27&#45;&gt;S_18 -->
<g id="edge24" class="edge">
<title>S_27-&gt;S_18</title>
<path fill="none" stroke="#000000" d="M381.6702,-485.856C388.1418,-473.0855 397.0194,-455.567 404.3525,-441.0963"/>
<polygon fill="#000000" stroke="#000000" points="407.5093,-442.6097 408.9076,-432.1076 401.2652,-439.4455 407.5093,-442.6097"/>
</g>
<!-- S_23 -->
<g id="node17" class="node">
<title>S_23</title>
<ellipse fill="none" stroke="#000000" cx="468.7797" cy="-719.4" rx="30.7808" ry="18"/>
<text text-anchor="middle" x="468.7797" y="-715.2" font-family="Times,serif" font-size="14.00" fill="#000000">S_23</text>
</g>
<!-- S_07&#45;&gt;S_23 -->
<g id="edge25" class="edge">
<title>S_07-&gt;S_23</title>
<path fill="none" stroke="#000000" d="M468.7797,-809.0793C468.7797,-792.221 468.7797,-766.9651 468.7797,-747.547"/>
<polygon fill="#000000" stroke="#000000" points="472.2798,-747.4501 468.7797,-737.4502 465.2798,-747.4502 472.2798,-747.4501"/>
</g>
<!-- S_16_1 -->
<g id="node18" class="node">
<title>S_16_1</title>
<ellipse fill="none" stroke="#000000" cx="468.7797" cy="-611.4" rx="40.5944" ry="18"/>
<text text-anchor="middle" x="468.7797" y="-607.2" font-family="Times,serif" font-size="14.00" fill="#000000">S_16_1</text>
</g>
<!-- S_23&#45;&gt;S_16_1 -->
<g id="edge26" class="edge">
<title>S_23-&gt;S_16_1</title>
<path fill="none" stroke="#000000" d="M468.7797,-701.0793C468.7797,-684.221 468.7797,-658.9651 468.7797,-639.547"/>
<polygon fill="#000000" stroke="#000000" points="472.2798,-639.4501 468.7797,-629.4502 465.2798,-639.4502 472.2798,-639.4501"/>
</g>
<!-- S_16_2 -->
<g id="node19" class="node">
<title>S_16_2</title>
<ellipse fill="none" stroke="#000000" cx="463.7797" cy="-503.4" rx="40.5944" ry="18"/>
<text text-anchor="middle" x="463.7797" y="-499.2" font-family="Times,serif" font-size="14.00" fill="#000000">S_16_2</text>
</g>
<!-- S_16_1&#45;&gt;S_16_2 -->
<g id="edge27" class="edge">
<title>S_16_1-&gt;S_16_2</title>
<path fill="none" stroke="#000000" d="M467.9315,-593.0793C467.151,-576.221 465.9817,-550.9651 465.0828,-531.547"/>
<polygon fill="#000000" stroke="#000000" points="468.5741,-531.2776 464.6153,-521.4502 461.5816,-531.6014 468.5741,-531.2776"/>
</g>
<!-- S_16_2&#45;&gt;S_18 -->
<g id="edge28" class="edge">
<title>S_16_2-&gt;S_18</title>
<path fill="none" stroke="#000000" d="M454.6915,-485.856C448.0762,-473.0855 439.0013,-455.567 431.5052,-441.0963"/>
<polygon fill="#000000" stroke="#000000" points="434.5564,-439.377 426.8489,-432.1076 428.3408,-442.5969 434.5564,-439.377"/>
</g>
<!-- S_21 -->
<g id="node21" class="node">
<title>S_21</title>
<ellipse fill="none" stroke="#000000" cx="537.7797" cy="-665.4" rx="30.7808" ry="18"/>
<text text-anchor="middle" x="537.7797" y="-661.2" font-family="Times,serif" font-size="14.00" fill="#000000">S_21</text>
</g>
<!-- S_04&#45;&gt;S_21 -->
<g id="edge29" class="edge">
<title>S_04-&gt;S_21</title>
<path fill="none" stroke="#000000" d="M575.1245,-809.4442C567.8396,-781.3455 553.6872,-726.7577 545.0504,-693.4442"/>
<polygon fill="#000000" stroke="#000000" points="548.3534,-692.2378 542.4557,-683.4362 541.5774,-693.9946 548.3534,-692.2378"/>
</g>
<!-- S_21&#45;&gt;S_18 -->
<g id="edge30" class="edge">
<title>S_21-&gt;S_18</title>
<path fill="none" stroke="#000000" d="M539.7834,-647.3122C542.6727,-613.0945 544.6662,-537.6411 513.7797,-485.4 499.301,-460.911 472.717,-442.3169 451.1891,-430.3429"/>
<polygon fill="#000000" stroke="#000000" points="452.7936,-427.2321 442.3224,-425.6187 449.502,-433.4099 452.7936,-427.2321"/>
</g>
<!-- S_12&#45;&gt;S_18 -->
<g id="edge31" class="edge">
<title>S_12-&gt;S_18</title>
<path fill="none" stroke="#000000" d="M648.9615,-760.093C623.5095,-742.0106 583.7797,-707.105 583.7797,-665.4 583.7797,-665.4 583.7797,-665.4 583.7797,-503.4 583.7797,-446.7976 507.8115,-426.1388 458.6586,-418.6961"/>
<polygon fill="#000000" stroke="#000000" points="459.0005,-415.21 448.614,-417.3003 458.037,-422.1434 459.0005,-415.21"/>
</g>
<!-- S_00&#45;&gt;S_18 -->
<g id="edge33" class="edge">
<title>S_00-&gt;S_18</title>
<path fill="none" stroke="#000000" d="M719.3777,-597.0388C697.8571,-580.4591 662.9546,-551.5748 638.5181,-521.4 615.6704,-493.1872 627.2627,-471.7832 597.7797,-450.6 575.8838,-434.868 504.2982,-424.2054 458.2731,-418.7835"/>
<polygon fill="#000000" stroke="#000000" points="458.6345,-415.3021 448.3016,-417.6433 457.8392,-422.2568 458.6345,-415.3021"/>
<text text-anchor="middle" x="668.9105" y="-499.2" font-family="Times,serif" font-size="14.00" fill="#000000">NOT BEN</text>
</g>
<!-- S_22 -->
<g id="node24" class="node">
<title>S_22</title>
<ellipse fill="none" stroke="#000000" cx="738.7797" cy="-503.4" rx="30.7808" ry="18"/>
<text text-anchor="middle" x="738.7797" y="-499.2" font-family="Times,serif" font-size="14.00" fill="#000000">S_22</text>
</g>
<!-- S_00&#45;&gt;S_22 -->
<g id="edge32" class="edge">
<title>S_00-&gt;S_22</title>
<path fill="none" stroke="#000000" d="M738.7797,-593.0793C738.7797,-576.221 738.7797,-550.9651 738.7797,-531.547"/>
<polygon fill="#000000" stroke="#000000" points="742.2798,-531.4501 738.7797,-521.4502 735.2798,-531.4502 742.2798,-531.4501"/>
<text text-anchor="middle" x="752.7776" y="-553.2" font-family="Times,serif" font-size="14.00" fill="#000000">BEN</text>
</g>
<!-- S_22&#45;&gt;S_18 -->
<g id="edge34" class="edge">
<title>S_22-&gt;S_18</title>
<path fill="none" stroke="#000000" d="M718.6341,-489.452C700.0449,-477.2681 671.2456,-460.0883 643.7797,-450.6 581.4173,-429.0565 504.8622,-420.3144 458.7697,-416.8308"/>
<polygon fill="#000000" stroke="#000000" points="458.7965,-413.3241 448.5742,-416.1089 458.302,-420.3066 458.7965,-413.3241"/>
</g>
</g>
</svg>